<svg version="1.1" id="Layer_1" xmlns="http://www.w3.org/2000/svg" xmlns:xlink="http://www.w3.org/1999/xlink" x="0px" y="0px"
	 width="100%" viewBox="0 0 448 384" enable-background="new 0 0 448 384" xml:space="preserve">
<path fill="#000000" opacity="1.000000" stroke="none" 
	d="
M311.990479,322.909607 
	C309.624664,326.871765 307.447937,330.521667 305.028961,334.577759 
	C300.922028,330.475800 299.074249,325.956451 296.653870,321.864136 
	C290.891052,312.120605 285.478333,302.169128 279.665466,292.456512 
	C277.799957,289.339508 277.741211,286.897522 279.601654,283.760529 
	C287.075745,271.158081 294.232422,258.367462 301.702942,245.762848 
	C303.262299,243.131775 303.437469,241.162170 301.771729,238.532394 
	C298.330627,233.099747 295.234802,227.448410 291.397430,220.857254 
	C282.403351,236.351517 274.009674,250.811401 265.696869,265.132050 
	C263.353210,265.345886 263.074127,263.548035 262.378326,262.354156 
	C254.665161,249.119354 247.063980,235.818665 239.260284,222.637756 
	C237.634125,219.891098 238.128525,217.803482 239.586380,215.284698 
	C256.434357,186.175522 273.203369,157.020645 290.002167,127.882950 
	C297.986115,114.034683 305.970520,100.186607 314.004883,86.367615 
	C315.063538,84.546745 315.750397,82.392868 318.062805,81.068642 
	C321.638062,84.159348 323.289642,88.588837 325.604736,92.483620 
	C331.473907,102.357681 336.969177,112.453873 342.827881,122.334404 
	C344.718018,125.522072 345.029297,128.056351 342.998322,131.443756 
	C335.550598,143.865662 328.521912,156.538040 321.163391,169.014664 
	C319.434235,171.946518 319.253052,174.301559 321.140411,177.249268 
	C324.447266,182.414078 327.365387,187.827805 331.129761,194.314911 
	C340.105225,178.985794 348.591705,164.491760 357.458344,149.348557 
	C362.544037,155.225983 365.184875,161.547211 368.679565,167.291107 
	C373.264984,174.827713 377.304749,182.701660 382.017334,190.153427 
	C384.562347,194.177795 384.627380,197.329971 382.187775,201.520340 
	C358.731415,241.809296 335.485657,282.220886 311.990479,322.909607 
z"/>
<path fill="#000000" opacity="1.000000" stroke="none" 
	d="
M145.754150,334.110352 
	C138.620987,325.442932 134.070328,315.568451 128.628387,306.251923 
	C108.465263,271.733246 88.569138,237.058594 68.597832,202.428040 
	C67.463654,200.461349 66.022621,198.589203 65.699432,196.335129 
	C67.359177,194.521179 69.313210,195.034790 71.056732,195.029678 
	C85.386795,194.987732 99.718246,195.124847 114.046516,194.963440 
	C117.686699,194.922424 119.833771,196.199326 121.607880,199.341537 
	C128.568573,211.669952 135.869064,223.807266 142.770355,236.167969 
	C144.723892,239.666885 146.983231,241.265289 151.046082,241.059494 
	C156.833664,240.766327 162.647156,240.984955 170.195648,240.984955 
	C161.317169,225.376587 153.104797,210.939224 144.985657,196.665787 
	C146.669601,194.484512 148.649963,195.001740 150.392685,194.997910 
	C164.889389,194.965973 179.387283,195.109894 193.882309,194.958359 
	C197.550812,194.920029 199.612396,196.313644 201.398270,199.423050 
	C226.119476,242.465668 250.948944,285.446106 275.727966,328.455566 
	C276.614410,329.994202 277.908966,331.430420 277.668701,333.470154 
	C276.265259,334.818848 274.523163,334.327606 272.943512,334.332336 
	C258.446716,334.375793 243.948563,334.261261 229.453674,334.433868 
	C225.839523,334.476929 223.669495,333.281525 221.885727,330.117920 
	C214.768555,317.495270 207.333603,305.051727 200.222473,292.425751 
	C198.528900,289.418762 196.546997,288.108276 193.089645,288.310822 
	C186.820847,288.678101 180.494034,287.865997 173.476959,289.025146 
	C182.064255,303.998718 190.376602,318.492889 199.400101,334.227112 
	C180.856079,334.227112 163.510620,334.227112 145.754150,334.110352 
z"/>
<path fill="#000000" opacity="1.000000" stroke="none" 
	d="
M263.437347,131.217316 
	C256.251587,143.661591 249.165329,155.726044 242.318680,167.924973 
	C240.150024,171.788956 237.607742,173.502701 232.886780,173.484497 
	C183.566803,173.294128 134.245789,173.372604 84.925072,173.356018 
	C83.123077,173.355423 81.253868,173.687561 79.524078,172.711853 
	C78.872330,170.657501 80.263580,169.201935 81.135185,167.683029 
	C88.346848,155.115509 95.714630,142.636627 102.823776,130.011871 
	C104.694870,126.689110 107.336090,126.016037 110.700180,126.024933 
	C124.863060,126.062386 139.027206,125.925316 153.188431,126.078957 
	C156.781158,126.117935 159.095917,125.064835 160.784821,121.791458 
	C163.508514,116.512451 167.208649,111.734856 169.474792,104.810806 
	C152.418945,104.810806 135.942764,104.810806 120.108757,104.810806 
	C118.644142,102.276154 119.597588,101.172501 120.240692,100.056839 
	C127.810257,86.925018 135.483383,73.851791 142.921097,60.645920 
	C144.583572,57.694145 146.914093,57.642658 149.646225,57.644657 
	C182.137909,57.668449 214.629623,57.658653 247.121323,57.658825 
	C264.283600,57.658916 281.445923,57.643520 298.608124,57.687237 
	C300.543732,57.692165 302.589447,57.196571 305.015289,58.760281 
	C302.398621,63.483662 299.832733,68.250206 297.141388,72.944817 
	C292.005402,81.903679 286.620789,90.725670 281.707062,99.803490 
	C279.735107,103.446579 277.242676,104.473877 273.312439,104.419510 
	C259.318756,104.225929 245.317902,104.508659 231.325897,104.262581 
	C227.049103,104.187370 224.550858,105.696609 222.656021,109.395119 
	C219.955597,114.666000 216.862381,119.735641 213.919006,124.922867 
	C216.357224,126.535576 218.564758,126.020233 220.658051,126.024429 
	C233.987778,126.051117 247.317703,126.032188 260.647430,125.988914 
	C264.450531,125.976570 266.292816,127.029167 263.437347,131.217316 
z"/>
</svg>